<svg width="38" height="38" viewBox="0 0 38 38" fill="none" xmlns="http://www.w3.org/2000/svg">
    <path d="M27.3383 23.0508C25.84 24.2025 10.8987 27.5365 10.8987 27.5365C10.4071 27.5699 9.64284 27.0643 9.02303 26.2567C8.31675 25.3365 7.99918 24.3988 8.31518 23.9913C8.31518 23.9913 16.5254 12.0857 18.0237 10.9326M27.3383 23.0508C28.8366 21.8992 27.9661 18.2528 25.394 14.9064C22.8218 11.5601 19.522 9.77949 18.0237 10.9326M27.3383 23.0508C25.84 24.2025 22.5402 22.4233 19.9681 19.077C17.3959 15.7306 16.5254 12.0857 18.0237 10.9326" stroke="#fff"/>
    <path d="M25.0771 6.87158C26.7876 7.4043 28.8995 9.02889 30.6864 11.3536C32.3855 13.5641 33.3972 15.8958 33.5569 17.6584" stroke="#fff" stroke-linecap="round"/>
    <path d="M23.834 10.1875C25.0694 10.5723 26.5948 11.7457 27.8854 13.4247C29.1126 15.0213 29.8433 16.7054 29.9586 17.9785" stroke="#fff" stroke-linecap="round"/>
</svg>
